<?xml version="1.0" encoding="UTF-8" standalone="no"?>
<svg width="14px" height="12px" viewBox="0 0 14 12" version="1.1" xmlns="http://www.w3.org/2000/svg" xmlns:xlink="http://www.w3.org/1999/xlink">
    <!-- Generator: Sketch 3.6.1 (26313) - http://www.bohemiancoding.com/sketch -->
    <title>email 2</title>
    <desc>Created with Sketch.</desc>
    <defs></defs>
    <g id="网页端管理系统设计" stroke="none" stroke-width="1" fill="none" fill-rule="evenodd">
        <g id="1.0.1-课程列表页面" transform="translate(-1274.000000, -49.000000)" fill="#4A4A4A">
            <g id="头部">
                <g id="个人信息和头像" transform="translate(1123.000000, 19.000000)">
                    <g id="email-2" transform="translate(151.000000, 30.000000)">
                        <path d="M12.6,0 L1.4,0 C0.63,0 0,0.675 0,1.5 L0,10.5 C0,11.325 0.63,12 1.4,12 L12.6,12 C13.37,12 14,11.325 14,10.5 L14,1.5 C14,0.675 13.37,0 12.6,0 L12.6,0 Z M12.6,3 L7,6.75 L1.4,3 L1.4,1.5 L7,5.25 L12.6,1.5 L12.6,3 L12.6,3 Z" id="Shape"></path>
                    </g>
                </g>
            </g>
        </g>
    </g>
</svg>